<?xml version="1.0" standalone="no"?>
<!DOCTYPE svg PUBLIC "-//W3C//DTD SVG 20010904//EN"
 "http://www.w3.org/TR/2001/REC-SVG-20010904/DTD/svg10.dtd">
<svg version="1.0" xmlns="http://www.w3.org/2000/svg"
 width="960.000000pt" height="960.000000pt" viewBox="0 0 960.000000 960.000000"
 preserveAspectRatio="xMidYMid meet">

<g transform="translate(0.000000,960.000000) scale(0.100000,-0.100000)"
fill="#000000" stroke="none">
<path d="M3689 6298 c0 -2 -6 -94 -13 -206 -7 -111 -15 -204 -17 -206 -2 -2
-80 -11 -174 -21 -257 -25 -310 -36 -310 -60 0 -28 33 -30 173 -11 65 9 160
19 212 22 l95 7 0 -524 c0 -582 4 -644 41 -685 33 -35 45 -21 32 36 -23 101
-18 1153 5 1176 3 3 85 12 184 19 206 17 561 19 648 5 64 -10 87 -2 65 24 -41
51 -338 58 -823 19 l-79 -6 7 79 c3 43 11 130 16 192 11 124 7 142 -37 142
-13 0 -24 -1 -25 -2z"/>
<path d="M3972 5718 c-7 -24 -15 -48 -18 -54 -3 -6 10 -17 27 -24 28 -12 33
-12 45 5 8 10 17 34 20 53 5 28 3 38 -11 49 -33 23 -50 16 -63 -29z"/>
<path d="M3360 5564 c-128 -35 -210 -91 -210 -144 0 -40 -108 -138 -202 -184
-97 -47 -169 -56 -225 -27 -37 18 -73 54 -73 72 0 4 18 9 40 13 43 7 114 62
125 98 11 31 -14 75 -52 93 -30 14 -40 15 -75 3 -113 -36 -144 -191 -55 -278
69 -67 258 -81 364 -27 67 34 115 77 149 132 l28 43 26 -17 c14 -10 65 -39
113 -63 57 -29 84 -48 76 -53 -6 -5 -65 -10 -130 -13 -66 -3 -119 -8 -119 -11
1 -32 57 -51 150 -51 112 0 180 29 180 76 0 28 -33 54 -152 119 -84 46 -105
66 -92 86 10 18 79 47 163 70 86 24 108 42 76 65 -23 17 -35 17 -105 -2z
m-604 -135 c7 -13 -33 -57 -76 -82 -29 -18 -30 -18 -30 2 0 11 14 36 31 56 31
35 62 45 75 24z"/>
<path d="M3932 5508 c-30 -37 -41 -160 -21 -233 43 -156 239 -142 425 30 l54
51 0 -57 c0 -52 3 -60 32 -84 l32 -27 49 53 c108 117 159 169 167 169 5 0 19
-34 31 -76 16 -53 30 -80 46 -91 29 -19 42 -14 138 63 67 54 85 63 85 44 0
-18 73 -91 111 -111 63 -32 144 -26 225 16 64 34 68 34 80 16 19 -26 76 -51
118 -51 49 0 95 20 172 76 41 29 64 40 64 31 0 -23 76 -93 128 -119 112 -54
533 -26 783 53 66 21 99 42 86 56 -4 3 -44 -1 -89 -10 -196 -40 -434 -61 -640
-56 -139 4 -148 5 -172 28 -31 29 -35 90 -10 149 14 35 14 38 -7 54 -27 23
-31 23 -58 -5 -21 -23 -23 -23 -74 -10 -32 9 -83 13 -132 11 -114 -6 -175 -42
-198 -119 -7 -20 -147 -80 -203 -87 -64 -7 -98 17 -124 85 -44 118 -57 120
-169 28 -50 -41 -92 -75 -95 -75 -2 0 -9 30 -16 67 -13 67 -43 113 -73 113
-23 0 -128 -82 -174 -136 l-43 -49 1 78 c1 59 -2 82 -14 94 -22 23 -47 9 -47
-26 0 -25 -12 -38 -82 -92 -137 -103 -274 -158 -327 -130 -26 15 -28 76 -5
188 15 73 15 78 -2 90 -22 16 -39 16 -52 1z m1767 -94 c18 -18 -185 -144 -233
-144 -45 0 -60 45 -30 88 17 24 63 51 109 63 31 8 144 3 154 -7z"/>
<path d="M4052 4924 c-38 -26 -55 -72 -54 -146 0 -78 19 -126 112 -283 69
-117 82 -158 53 -173 -28 -15 -44 -1 -78 70 -25 52 -35 63 -55 63 -28 0 -28
-5 -9 -127 8 -53 15 -68 28 -68 9 0 22 5 29 12 9 9 18 9 37 0 86 -39 165 35
165 156 0 77 -16 120 -100 273 -46 81 -70 137 -70 157 0 61 45 31 84 -57 16
-35 24 -41 49 -41 28 0 29 2 23 32 -3 18 -9 56 -13 86 -7 59 -21 72 -57 52
-18 -9 -29 -9 -44 -1 -29 16 -74 14 -100 -5z"/>
<path d="M4840 4922 c-86 -45 -137 -190 -127 -356 9 -157 60 -260 143 -292
145 -55 264 91 264 325 0 202 -81 341 -199 341 -26 0 -62 -8 -81 -18z m100
-42 c7 -12 9 -114 8 -286 -3 -236 -5 -268 -20 -277 -12 -8 -21 -7 -32 2 -14
12 -16 49 -16 282 0 230 2 270 16 283 20 21 31 20 44 -4z"/>
<path d="M4314 4916 c-3 -7 -4 -42 -2 -77 3 -55 6 -64 22 -64 22 0 31 15 43
70 5 25 14 40 23 40 13 0 15 -38 18 -269 2 -263 2 -270 -19 -292 -41 -43 -21
-54 96 -54 104 0 105 0 105 24 0 13 -7 29 -15 36 -13 11 -15 55 -15 289 1 276
1 276 20 252 11 -13 20 -34 20 -46 0 -27 26 -58 44 -52 12 4 20 98 11 134 -5
23 -6 23 -176 23 -133 0 -171 -3 -175 -14z"/>
<path d="M5160 4906 c0 -13 7 -29 15 -36 13 -10 15 -53 15 -270 0 -217 -2
-260 -15 -270 -8 -7 -15 -23 -15 -36 0 -24 1 -24 100 -24 84 0 102 3 107 16 3
9 1 25 -5 35 -7 11 -12 63 -12 129 0 99 2 110 18 110 35 0 42 -21 42 -129 0
-147 6 -155 98 -159 80 -3 95 8 69 50 -9 14 -15 53 -17 97 -2 89 -18 124 -66
149 l-36 19 31 13 c88 36 114 171 50 262 -40 56 -82 68 -239 68 l-140 0 0 -24z
m238 -38 c15 -15 16 -211 2 -239 -6 -10 -21 -19 -33 -19 -22 0 -22 2 -22 135
0 129 1 135 21 135 11 0 25 -5 32 -12z"/>
<path d="M5610 4907 c0 -12 9 -28 20 -35 19 -12 20 -23 20 -272 0 -249 -1
-260 -20 -272 -11 -7 -20 -23 -20 -36 l0 -23 152 3 153 3 12 65 c14 77 11 93
-19 88 -17 -2 -27 -16 -42 -55 -15 -44 -23 -53 -42 -53 l-24 0 0 140 c0 133 1
140 20 140 13 0 25 -12 35 -36 10 -25 20 -35 32 -32 15 3 18 16 21 91 l3 87
-26 0 c-20 0 -27 -6 -31 -30 -5 -23 -12 -30 -30 -30 -24 0 -24 1 -24 115 0
109 1 115 21 115 14 0 26 -13 40 -44 10 -24 26 -47 36 -50 30 -12 36 9 23 78
l-12 66 -149 0 c-148 0 -149 0 -149 -23z"/>
<path d="M1650 3940 c0 -91 3 -110 15 -110 12 0 15 15 15 78 l0 77 30 -52 c17
-29 32 -53 35 -53 3 0 18 24 35 53 l30 52 0 -77 c0 -63 3 -78 15 -78 12 0 15
19 15 110 0 131 -10 139 -59 49 -37 -67 -33 -68 -81 19 -40 71 -50 57 -50 -68z"/>
<path d="M1934 4032 c-30 -24 -44 -55 -44 -97 0 -55 53 -105 110 -105 57 0
110 50 110 105 0 72 -41 115 -110 115 -28 0 -53 -7 -66 -18z m124 -35 c29 -27
30 -82 0 -114 -27 -29 -76 -30 -112 -2 -48 38 -29 119 34 142 22 8 52 -2 78
-26z"/>
<path d="M2150 3940 l0 -110 28 0 c39 0 86 32 101 69 29 69 -22 151 -95 151
l-34 0 0 -110z m85 55 c16 -15 25 -36 25 -55 0 -33 -38 -80 -65 -80 -12 0 -15
15 -15 80 0 90 11 100 55 55z"/>
<path d="M2367 4008 c-66 -178 -66 -178 -51 -178 8 0 21 18 30 40 13 33 21 40
44 40 23 0 31 -7 44 -40 9 -22 22 -40 30 -40 15 0 15 0 -51 178 -9 23 -19 42
-23 42 -4 0 -14 -19 -23 -42z m36 -48 c4 -15 0 -20 -13 -20 -13 0 -17 5 -13
20 3 11 9 20 13 20 4 0 10 -9 13 -20z"/>
<path d="M2600 3940 c0 -91 3 -110 15 -110 10 0 15 11 15 35 0 30 3 35 24 35
38 0 76 36 76 74 0 46 -35 76 -88 76 l-42 0 0 -110z m88 68 c29 -29 7 -78 -35
-78 -21 0 -23 5 -23 45 0 40 2 45 23 45 13 0 28 -5 35 -12z"/>
<path d="M2760 3940 l0 -110 55 0 c42 0 55 3 55 15 0 11 -11 15 -40 15 l-40 0
0 95 c0 78 -3 95 -15 95 -12 0 -15 -19 -15 -110z"/>
<path d="M2900 3960 c0 -77 3 -93 20 -110 35 -35 92 -25 115 21 21 40 21 179
0 179 -12 0 -15 -15 -15 -79 0 -84 -12 -111 -50 -111 -34 0 -50 39 -50 117 0
42 -4 73 -10 73 -6 0 -10 -37 -10 -90z"/>
<path d="M3098 4026 c-15 -34 -6 -51 42 -81 34 -21 41 -31 38 -53 -4 -37 -49
-43 -72 -10 -11 15 -19 19 -26 12 -7 -7 -4 -19 10 -37 42 -53 125 -21 118 46
-2 24 -13 38 -45 60 -43 28 -54 51 -30 60 6 2 20 -1 29 -7 22 -13 34 -1 18 19
-20 25 -69 19 -82 -9z"/>
<path d="M3570 3940 c0 -126 18 -152 22 -32 l3 77 20 -34 c11 -18 27 -43 36
-54 16 -21 17 -20 48 34 l31 54 0 -77 c0 -63 3 -78 15 -78 12 0 15 19 15 110
0 125 -10 139 -50 68 -48 -87 -44 -86 -81 -19 -49 90 -59 82 -59 -49z"/>
<path d="M3841 4019 c-26 -25 -31 -39 -31 -76 0 -38 5 -50 34 -79 28 -28 42
-34 76 -34 34 0 48 6 76 34 28 28 34 42 34 76 0 34 -6 48 -34 76 -29 29 -41
34 -79 34 -37 0 -51 -5 -76 -31z m137 -22 c50 -47 11 -137 -61 -137 -34 0 -67
26 -80 62 -11 31 13 79 47 94 36 15 62 10 94 -19z"/>
<path d="M4070 3941 l0 -111 28 0 c71 0 125 75 102 144 -15 45 -41 67 -89 73
l-41 6 0 -112z m77 64 c54 -38 26 -145 -38 -145 -5 0 -9 36 -9 80 0 86 6 94
47 65z"/>
<path d="M4295 4038 c-74 -206 -75 -210 -58 -206 9 2 22 19 28 38 9 28 17 36
42 38 26 3 31 -1 45 -37 9 -23 21 -41 27 -41 16 0 14 9 -25 119 -34 96 -49
117 -59 89z m25 -78 c9 -17 8 -20 -9 -20 -14 0 -18 5 -14 20 3 11 7 20 9 20 2
0 8 -9 14 -20z"/>
<path d="M4530 3940 c0 -91 3 -110 15 -110 12 0 15 15 15 78 l0 77 30 -53 c17
-29 35 -50 41 -47 5 4 20 27 34 53 l24 47 1 -77 c0 -63 3 -78 15 -78 12 0 15
19 15 110 0 131 -10 139 -59 49 -37 -67 -33 -68 -81 19 -40 71 -50 57 -50 -68z"/>
<path d="M4836 4041 c-7 -10 -76 -199 -76 -206 0 -3 6 -5 13 -5 8 0 21 18 30
40 13 33 20 40 42 40 22 0 29 -7 42 -40 9 -22 22 -40 30 -40 17 0 18 -6 -22
107 -37 102 -48 122 -59 104z m24 -93 c0 -5 -7 -8 -15 -8 -17 0 -18 2 -9 25 5
13 8 14 15 3 5 -7 9 -16 9 -20z"/>
<path d="M4978 4026 c-15 -34 -6 -51 42 -81 34 -21 41 -31 38 -53 -4 -35 -51
-44 -68 -13 -13 26 -30 27 -30 3 0 -47 73 -69 110 -32 38 38 16 103 -43 123
-23 9 -33 37 -16 48 8 5 20 2 30 -7 21 -19 37 0 19 21 -20 25 -69 19 -82 -9z"/>
<path d="M5151 4019 c-26 -25 -31 -39 -31 -76 0 -38 5 -50 35 -80 33 -33 39
-35 80 -30 49 5 82 24 66 40 -5 5 -17 5 -29 -2 -59 -32 -122 6 -122 72 0 49
28 77 78 77 21 0 43 -5 50 -12 9 -9 15 -9 23 -1 17 17 -29 43 -77 43 -34 0
-49 -6 -73 -31z"/>
<path d="M5350 3960 c0 -77 3 -93 20 -110 35 -35 92 -25 115 21 21 40 21 179
0 179 -12 0 -15 -15 -15 -79 0 -84 -12 -111 -50 -111 -34 0 -50 39 -50 117 0
42 -4 73 -10 73 -6 0 -10 -37 -10 -90z"/>
<path d="M5540 3940 l0 -110 50 0 c38 0 50 4 50 15 0 10 -11 15 -35 15 l-35 0
0 95 c0 78 -3 95 -15 95 -12 0 -15 -19 -15 -110z"/>
<path d="M5680 3940 c0 -91 3 -110 15 -110 12 0 15 19 15 110 0 91 -3 110 -15
110 -12 0 -15 -19 -15 -110z"/>
<path d="M5750 3940 c0 -90 3 -110 15 -110 11 0 15 18 17 78 l3 77 44 -77 c25
-43 51 -78 58 -78 10 0 13 25 13 110 0 91 -3 110 -15 110 -12 0 -15 -15 -15
-77 l0 -78 -46 78 c-63 109 -74 104 -74 -33z"/>
<path d="M5968 3946 c-43 -118 -43 -116 -25 -116 8 0 20 18 27 40 11 34 17 40
42 40 24 0 31 -6 44 -40 16 -39 52 -59 40 -22 -26 77 -74 196 -82 199 -5 2
-26 -44 -46 -101z m62 2 c0 -5 -7 -8 -15 -8 -15 0 -20 21 -8 33 7 7 23 -11 23
-25z"/>
<path d="M6460 3939 c0 -84 3 -110 13 -106 8 2 12 27 12 74 0 39 3 69 8 66 4
-2 16 -22 27 -43 11 -21 24 -41 29 -45 6 -3 24 18 41 47 l30 53 0 -77 c0 -63
3 -78 15 -78 12 0 15 19 15 110 0 125 -10 139 -50 68 -48 -87 -44 -86 -81 -19
-50 90 -59 82 -59 -50z"/>
<path d="M6731 4019 c-26 -25 -31 -39 -31 -76 0 -38 5 -50 34 -79 28 -28 42
-34 76 -34 34 0 48 6 76 34 28 28 34 42 34 76 0 34 -6 48 -34 76 -29 29 -41
34 -79 34 -37 0 -51 -5 -76 -31z m137 -22 c50 -46 11 -137 -59 -137 -86 0
-113 122 -35 156 36 15 62 10 94 -19z"/>
<path d="M6960 3941 l0 -111 28 0 c72 0 130 83 103 149 -18 43 -44 62 -90 68
l-41 6 0 -112z m85 54 c29 -28 31 -54 10 -94 -13 -26 -33 -41 -56 -41 -5 0 -9
36 -9 80 0 90 11 100 55 55z"/>
<path d="M7185 4033 c-4 -10 -22 -60 -41 -111 -28 -78 -31 -93 -17 -90 9 2 22
19 28 38 9 28 17 36 42 38 26 3 31 -1 45 -37 15 -37 38 -56 38 -32 0 20 -73
211 -80 211 -4 0 -11 -8 -15 -17z m25 -73 c9 -17 8 -20 -9 -20 -14 0 -18 5
-14 20 3 11 7 20 9 20 2 0 8 -9 14 -20z"/>
<path d="M7410 3940 c0 -91 3 -110 15 -110 11 0 15 12 15 50 l0 50 41 0 c52 0
48 24 -4 28 -34 3 -37 6 -37 33 0 27 2 29 40 29 29 0 40 4 40 15 0 12 -13 15
-55 15 l-55 0 0 -110z"/>
<path d="M7560 3940 l0 -110 55 0 c42 0 55 3 55 15 0 11 -12 15 -46 15 -45 0
-45 0 -42 33 3 30 6 32 46 35 28 2 42 8 42 18 0 10 -12 14 -45 14 -43 0 -45 1
-45 30 0 29 2 30 45 30 33 0 45 4 45 15 0 12 -13 15 -55 15 l-55 0 0 -110z"/>
<path d="M7720 3940 c0 -91 3 -110 15 -110 12 0 15 15 15 78 l0 77 31 -53 c17
-28 35 -50 40 -46 5 3 18 23 29 44 11 21 23 41 27 43 5 3 8 -27 8 -66 0 -47 4
-72 13 -74 9 -4 12 22 12 106 0 132 -9 140 -59 50 l-33 -61 -36 61 c-53 89
-62 82 -62 -49z"/>
<path d="M7962 3943 c2 -74 7 -108 16 -111 9 -3 12 23 12 107 0 93 -2 111 -15
111 -13 0 -15 -16 -13 -107z"/>
<path d="M8040 3939 c0 -84 3 -110 13 -107 8 3 13 30 15 78 l3 73 42 -73 c61
-106 67 -103 67 29 0 91 -3 111 -15 111 -11 0 -15 -17 -17 -71 l-3 -72 -40 72
c-22 39 -46 71 -52 71 -10 0 -13 -29 -13 -111z"/>
<path d="M8230 3939 c0 -84 3 -110 13 -107 8 3 13 37 15 111 2 91 0 107 -13
107 -13 0 -15 -18 -15 -111z"/>
<path d="M8300 3940 c0 -91 3 -110 15 -110 12 0 15 15 15 78 l0 77 46 -78 c25
-43 50 -77 55 -75 6 2 10 7 10 11 -1 4 -1 52 -1 107 0 118 -18 136 -22 23 l-3
-78 -44 78 c-25 42 -51 77 -58 77 -10 0 -13 -25 -13 -110z"/>
<path d="M8537 4008 c-67 -180 -67 -178 -51 -178 9 0 22 18 31 40 13 33 21 40
43 40 23 0 31 -7 44 -40 9 -22 22 -40 30 -40 15 0 15 0 -51 178 -9 23 -19 42
-23 42 -4 0 -14 -19 -23 -42z m36 -48 c4 -15 0 -20 -13 -20 -13 0 -17 5 -13
20 3 11 9 20 13 20 4 0 10 -9 13 -20z"/>
<path d="M3330 3915 c0 -11 12 -15 45 -15 33 0 45 4 45 15 0 11 -12 15 -45 15
-33 0 -45 -4 -45 -15z"/>
<path d="M6220 3915 c0 -13 9 -16 48 -13 26 2 47 8 47 13 0 6 -21 11 -47 13
-39 3 -48 0 -48 -13z"/>
</g>
</svg>
