<?xml version="1.0" standalone="no"?>
<!DOCTYPE svg PUBLIC "-//W3C//DTD SVG 20010904//EN"
 "http://www.w3.org/TR/2001/REC-SVG-20010904/DTD/svg10.dtd">
<svg version="1.0" xmlns="http://www.w3.org/2000/svg"
 width="1034.000000pt" height="1034.000000pt" viewBox="0 0 1034.000000 1034.000000"
 preserveAspectRatio="xMidYMid meet">

<g transform="translate(0.000000,1034.000000) scale(0.100000,-0.100000)"
fill="#000000" stroke="none">
<path d="M2801 8348 c-8 -22 -52 -723 -51 -820 0 -27 -3 -48 -7 -48 -20 0
-548 -51 -623 -60 -117 -15 -408 -60 -426 -67 -22 -8 -17 -29 15 -65 36 -40
61 -41 266 -10 164 25 753 84 763 77 1 -1 -2 -103 -8 -226 -28 -591 -22 -1744
10 -2094 17 -179 26 -210 75 -262 32 -33 49 -44 67 -41 27 4 27 7 5 128 -36
199 -42 349 -41 1035 1 470 6 789 18 1070 10 220 19 401 20 402 0 1 84 9 186
17 740 64 1330 71 1636 21 111 -18 101 -19 114 4 8 16 5 26 -16 51 -51 60
-106 72 -395 91 -267 17 -934 -9 -1453 -57 l-68 -7 6 99 c19 273 38 514 49
608 7 58 10 114 5 125 -9 27 -59 51 -103 51 -28 0 -37 -5 -44 -22z"/>
<path d="M3434 7213 c-6 -5 -14 -26 -18 -48 -4 -22 -18 -66 -31 -99 -13 -32
-21 -64 -18 -72 6 -16 82 -54 109 -54 31 0 39 11 67 85 46 126 46 145 -2 169
-35 19 -93 29 -107 19z"/>
<path d="M2160 6814 c-241 -51 -445 -156 -496 -255 -8 -16 -14 -50 -14 -77 l0
-49 -103 -100 c-219 -210 -451 -324 -661 -323 -92 1 -132 13 -200 59 -47 32
-106 103 -106 126 0 8 20 14 49 17 103 10 248 104 292 190 41 80 11 169 -74
222 -95 59 -225 30 -316 -70 -68 -74 -94 -145 -95 -254 -1 -77 2 -92 31 -150
39 -79 88 -128 168 -168 106 -54 172 -66 350 -66 154 0 163 1 247 30 117 42
228 113 313 200 58 59 134 166 148 207 1 5 29 -9 62 -31 33 -22 145 -84 248
-137 103 -54 186 -99 184 -102 -17 -17 -205 -36 -367 -37 -204 -1 -208 -3
-171 -62 30 -48 84 -59 301 -59 221 0 281 13 342 75 31 31 38 45 38 77 0 21
-7 49 -16 62 -20 28 -111 86 -274 176 -221 120 -251 146 -226 193 28 53 125
96 379 168 177 50 184 55 151 102 -19 27 -65 52 -96 51 -13 0 -52 -7 -88 -15z
m-1362 -286 c23 -23 13 -58 -31 -102 -44 -43 -184 -132 -194 -123 -9 10 18 80
50 131 52 83 139 130 175 94z"/>
<path d="M3300 6648 c-64 -148 -64 -405 0 -541 28 -59 87 -111 157 -137 64
-24 182 -27 261 -6 155 42 370 181 515 335 l67 71 0 -115 c0 -75 5 -127 14
-148 15 -38 66 -84 102 -93 32 -8 50 9 203 186 142 165 262 280 292 280 4 0
12 -28 19 -62 15 -77 66 -236 86 -266 19 -30 73 -62 102 -62 23 0 167 100 272
189 30 26 72 60 92 75 l37 28 32 -63 c40 -79 135 -175 210 -211 175 -84 361
-60 568 75 50 32 66 38 69 27 9 -28 87 -93 142 -118 151 -70 308 -20 553 176
38 29 69 52 71 50 1 -1 11 -22 21 -46 27 -61 146 -170 242 -220 113 -59 214
-75 473 -74 451 0 1116 110 1346 222 70 34 85 55 50 71 -23 11 -23 11 -271
-39 -340 -69 -1103 -126 -1387 -104 -222 18 -277 42 -308 138 -19 56 -8 168
24 238 14 32 26 67 26 77 0 22 -57 67 -96 75 -26 5 -33 0 -67 -44 l-37 -49
-93 25 c-126 33 -332 42 -441 18 -89 -20 -156 -54 -210 -104 -40 -39 -75 -102
-76 -138 0 -17 -23 -32 -117 -77 -242 -115 -360 -139 -460 -93 -64 30 -88 66
-139 204 -40 110 -66 144 -120 162 -35 12 -35 11 -162 -91 -70 -57 -155 -127
-190 -156 -35 -29 -66 -53 -71 -53 -4 0 -19 57 -34 126 -16 69 -35 143 -43
164 -17 42 -77 90 -112 90 -62 0 -181 -89 -346 -261 l-117 -121 2 163 1 163
-36 33 c-37 35 -67 42 -84 21 -5 -7 -13 -42 -17 -78 -7 -65 -7 -65 -70 -119
-194 -164 -451 -315 -610 -357 -98 -27 -200 -11 -224 34 -26 48 -2 314 40 457
l21 69 -31 28 c-24 22 -41 28 -75 28 -43 0 -44 -1 -66 -52z m3712 -149 c48 -7
88 -15 88 -20 0 -13 -141 -130 -221 -184 -158 -106 -318 -144 -373 -89 -22 22
-20 80 5 132 38 77 152 142 284 161 87 12 118 12 217 0z"/>
<path d="M3909 5472 c-8 -3 -24 -16 -35 -31 l-22 -26 -48 25 c-64 31 -149 38
-197 15 -121 -57 -183 -247 -143 -442 26 -130 70 -223 224 -478 112 -186 152
-269 152 -320 0 -22 -4 -45 -8 -51 -12 -19 -52 -35 -71 -29 -43 13 -104 110
-147 234 -20 56 -39 71 -92 71 -57 0 -57 -2 -28 -196 37 -248 30 -228 77 -221
24 3 46 14 58 28 l18 23 60 -27 c33 -15 78 -27 99 -27 87 0 183 72 228 169 28
63 35 259 12 352 -20 79 -101 247 -202 420 -135 231 -177 344 -144 384 38 46
96 -6 168 -151 28 -56 58 -104 67 -108 25 -9 93 -7 100 3 3 5 -6 81 -20 168
-35 222 -32 210 -64 215 -15 2 -34 2 -42 0z"/>
<path d="M5320 5461 c-171 -55 -289 -244 -330 -526 -24 -167 -5 -430 40 -567
50 -150 147 -276 244 -320 41 -18 69 -22 141 -22 113 0 165 22 243 101 129
130 192 334 192 617 0 260 -50 448 -154 581 -81 103 -148 139 -266 142 -47 1
-96 -1 -110 -6z m137 -105 l28 -24 3 -556 c2 -377 -1 -569 -8 -597 -12 -45
-43 -65 -84 -55 -51 13 -51 11 -54 608 -3 603 -2 617 50 638 33 13 34 12 65
-14z"/>
<path d="M4142 5433 c-5 -10 -12 -80 -16 -156 -8 -155 -4 -167 50 -167 52 0
69 25 82 118 15 103 24 122 62 122 l30 0 0 -585 0 -586 -30 -17 c-33 -18 -43
-43 -38 -88 l3 -29 224 -3 c245 -3 241 -4 241 56 0 26 -8 41 -35 65 l-35 31 0
578 c0 577 0 578 21 578 23 0 53 -58 64 -125 14 -82 24 -102 55 -109 17 -3 42
-1 56 4 l27 10 -8 118 c-4 64 -10 135 -14 157 l-6 40 -362 3 c-337 2 -363 1
-371 -15z"/>
<path d="M5940 5425 c-18 -48 -12 -75 20 -93 19 -11 34 -30 41 -52 6 -23 9
-219 7 -559 l-3 -523 -33 -28 c-30 -25 -33 -32 -30 -76 l3 -49 215 0 215 0 3
46 c2 37 -2 50 -23 73 l-25 27 0 235 0 234 35 0 c51 0 91 -24 104 -61 7 -20
11 -115 11 -245 0 -220 5 -251 42 -291 20 -22 29 -23 169 -23 l147 0 7 37 c5
29 2 42 -17 67 -21 29 -23 43 -28 201 -6 181 -10 197 -67 272 -22 28 -85 66
-148 88 -16 5 -11 10 31 26 67 25 138 88 172 153 25 47 27 60 27 171 0 116 -1
123 -33 187 -38 77 -97 134 -181 175 l-56 28 -298 3 -297 3 -10 -26z m493 -95
c39 -31 47 -77 47 -260 -1 -254 -17 -302 -104 -308 l-46 -3 0 295 0 296 39 0
c23 0 48 -8 64 -20z"/>
<path d="M6900 5401 c0 -45 3 -51 35 -70 l35 -20 -2 -568 -3 -568 -32 -20
c-35 -22 -45 -45 -36 -86 l6 -29 322 0 323 0 16 88 c41 228 40 224 20 239 -26
19 -71 16 -93 -6 -10 -10 -30 -54 -45 -98 -37 -110 -47 -123 -102 -123 l-44 0
0 301 0 300 48 -3 47 -3 21 -65 c21 -65 21 -65 61 -68 25 -2 44 2 52 11 8 10
11 65 9 188 l-3 173 -44 9 c-53 11 -65 0 -75 -66 -9 -60 -18 -69 -70 -74 l-46
-6 0 252 0 251 38 0 c49 0 63 -15 102 -110 17 -41 36 -78 43 -82 17 -11 95
-10 101 1 7 10 -42 258 -55 284 -9 16 -35 17 -319 17 l-310 0 0 -49z"/>
</g>
</svg>
