<?xml version="1.0" encoding="UTF-8"?>
<svg xmlns="http://www.w3.org/2000/svg" xmlns:xlink="http://www.w3.org/1999/xlink" width="567px" height="171px" viewBox="0 0 567 171" version="1.1">
<g id="surface1">
<path style=" stroke:none;fill-rule:nonzero;fill:rgb(0%,0%,0%);fill-opacity:1;" d="M 153.535156 32.929688 C 153.097656 33.292969 150.683594 44.882812 150.738281 46.484375 C 150.738281 46.933594 150.574219 47.28125 150.355469 47.28125 C 149.257812 47.28125 120.316406 48.121094 116.207031 48.269531 C 109.792969 48.519531 93.84375 49.261719 92.855469 49.378906 C 91.648438 49.511719 91.921875 49.859375 93.679688 50.453125 C 95.652344 51.113281 97.019531 51.132812 108.257812 50.617188 C 117.246094 50.207031 149.535156 49.230469 150.082031 49.347656 C 150.136719 49.363281 149.972656 51.046875 149.644531 53.082031 C 148.109375 62.851562 148.4375 81.914062 150.191406 87.699219 C 151.125 90.65625 151.617188 91.171875 154.300781 92.03125 C 156.054688 92.574219 156.988281 92.757812 157.976562 92.707031 C 159.453125 92.640625 159.453125 92.59375 158.25 90.589844 C 156.277344 87.300781 155.945312 84.820312 156 73.480469 C 156.054688 65.710938 156.332031 60.4375 156.988281 55.792969 C 157.535156 52.15625 158.03125 49.164062 158.085938 49.148438 C 158.085938 49.132812 162.6875 49 168.28125 48.867188 C 208.84375 47.808594 241.183594 47.691406 257.957031 48.519531 C 264.039062 48.816406 263.492188 48.832031 264.207031 48.453125 C 264.644531 48.1875 264.480469 48.023438 263.328125 47.609375 C 260.53125 46.617188 257.519531 46.421875 241.675781 46.105469 C 227.042969 45.824219 190.480469 46.253906 162.03125 47.046875 L 158.304688 47.164062 L 158.632812 45.527344 C 159.675781 41.015625 160.714844 37.03125 161.320312 35.476562 C 161.703125 34.515625 161.867188 33.589844 161.59375 33.410156 C 161.097656 32.964844 158.359375 32.566406 155.945312 32.566406 C 154.414062 32.566406 153.917969 32.648438 153.535156 32.929688 Z M 153.535156 32.929688 "/>
<path style=" stroke:none;fill-rule:nonzero;fill:rgb(0%,0%,0%);fill-opacity:1;" d="M 188.234375 51.695312 C 187.902344 51.777344 187.464844 52.125 187.246094 52.488281 C 187.027344 52.851562 186.257812 53.578125 185.546875 54.125 C 184.835938 54.652344 184.394531 55.179688 184.558594 55.3125 C 184.890625 55.578125 189.054688 56.207031 190.535156 56.207031 C 192.234375 56.207031 192.671875 56.023438 194.207031 54.800781 C 196.730469 52.71875 196.730469 52.402344 194.097656 52.007812 C 192.179688 51.695312 189 51.527344 188.234375 51.695312 Z M 188.234375 51.695312 "/>
<path style=" stroke:none;fill-rule:nonzero;fill:rgb(0%,0%,0%);fill-opacity:1;" d="M 118.398438 58.289062 C 105.1875 59.132812 94.007812 60.867188 91.210938 62.503906 C 90.773438 62.769531 90.445312 63.332031 90.445312 63.777344 L 90.445312 64.585938 L 84.796875 66.242188 C 72.792969 69.710938 60.078125 71.597656 48.566406 71.582031 C 43.523438 71.5625 41.328125 71.367188 37.601562 70.605469 C 35.027344 70.078125 31.792969 68.902344 31.792969 68.523438 C 31.792969 68.390625 32.886719 68.289062 34.476562 68.242188 C 40.125 68.074219 48.070312 66.523438 50.484375 65.101562 C 52.730469 63.777344 51.085938 62.304688 46.429688 61.429688 C 41.21875 60.453125 34.09375 60.933594 29.105469 62.585938 C 25.378906 63.8125 23.953125 64.984375 23.898438 66.785156 C 23.84375 68.058594 24.007812 68.308594 25.597656 69.265625 C 27.734375 70.570312 30.421875 71.382812 34.808594 72.042969 C 40.617188 72.9375 44.234375 73.132812 53.992188 73.132812 C 62.433594 73.132812 62.925781 73.117188 67.53125 72.636719 C 73.945312 71.945312 80.027344 70.769531 84.6875 69.332031 C 87.867188 68.355469 92.035156 66.589844 92.800781 65.910156 C 92.855469 65.828125 94.390625 66.058594 96.199219 66.421875 C 98.007812 66.785156 104.148438 67.8125 109.792969 68.6875 C 115.4375 69.582031 119.988281 70.324219 119.878906 70.375 C 118.945312 70.65625 108.640625 70.96875 99.761719 70.984375 C 88.578125 71.003906 88.359375 71.035156 90.390625 72.011719 C 92.035156 72.804688 94.992188 72.984375 106.886719 72.984375 C 119.003906 72.984375 122.289062 72.769531 125.632812 71.746094 C 127.332031 71.234375 127.71875 71.003906 127.71875 70.472656 C 127.71875 70.125 127.332031 69.664062 126.839844 69.449219 C 125.746094 68.984375 120.757812 68.027344 111.820312 66.539062 C 99.707031 64.554688 98.0625 64.125 99.433594 63.347656 C 100.96875 62.472656 106.285156 61.761719 120.207031 60.570312 C 129.910156 59.746094 130.292969 59.660156 128.484375 58.882812 C 127.445312 58.4375 124.921875 58.023438 123.222656 58.042969 C 122.511719 58.042969 120.371094 58.15625 118.398438 58.289062 Z M 43.742188 63.015625 C 45.003906 63.398438 44.453125 63.976562 42.042969 64.703125 C 39.628906 65.414062 31.957031 66.886719 31.410156 66.738281 C 30.914062 66.570312 32.394531 65.414062 34.148438 64.570312 C 37 63.199219 41.769531 62.421875 43.742188 63.015625 Z M 43.742188 63.015625 "/>
<path style=" stroke:none;fill-rule:nonzero;fill:rgb(0%,0%,0%);fill-opacity:1;" d="M 180.886719 61.035156 C 177.378906 63.480469 177.378906 67.730469 180.886719 69.976562 C 182.421875 70.953125 185.65625 71.8125 189.492188 72.242188 C 193 72.636719 199.46875 72.6875 203.800781 72.339844 C 212.296875 71.648438 224.082031 69.347656 232.027344 66.804688 L 235.703125 65.628906 L 235.703125 67.53125 C 235.703125 68.769531 235.976562 69.628906 236.46875 69.976562 C 237.292969 70.605469 240.085938 71.367188 242.058594 71.515625 C 243.8125 71.648438 244.800781 71.367188 253.1875 68.441406 C 260.972656 65.710938 267.550781 63.8125 269.195312 63.8125 C 269.414062 63.8125 269.851562 64.273438 270.234375 64.835938 C 271.058594 66.109375 273.851562 68.738281 274.949219 69.234375 C 275.992188 69.730469 278.949219 70.257812 280.539062 70.257812 C 281.800781 70.257812 289.695312 68.605469 295.449219 67.132812 C 297.09375 66.703125 299.394531 66.140625 300.492188 65.894531 L 302.519531 65.429688 L 304.273438 66.472656 C 306.46875 67.777344 311.675781 69.367188 315.785156 69.960938 C 325.378906 71.347656 335.574219 70.953125 346.921875 68.722656 C 349.660156 68.191406 350.539062 68.09375 350.703125 68.273438 C 351.195312 68.738281 355.472656 69.8125 358.484375 70.226562 C 366.761719 71.382812 375.367188 70.554688 388.796875 67.316406 C 390.882812 66.835938 392.582031 66.457031 392.691406 66.488281 C 392.746094 66.503906 393.292969 66.851562 393.839844 67.25 C 395.320312 68.257812 401.84375 70.058594 407.105469 70.886719 C 413.300781 71.863281 418.835938 72.125 433.035156 72.109375 C 457.753906 72.109375 494.207031 70.292969 506.8125 68.441406 C 510.652344 67.878906 511.472656 67.53125 509.554688 67.265625 C 508.292969 67.085938 508.292969 67.085938 494.699219 67.910156 C 476.0625 69.050781 434.238281 69.992188 418.671875 69.628906 C 406.503906 69.332031 403.488281 68.9375 401.789062 67.347656 C 400.746094 66.421875 401.351562 64.570312 403.105469 63.414062 C 403.871094 62.886719 404.53125 62.304688 404.53125 62.140625 C 404.53125 61.777344 401.40625 61.035156 399.269531 60.902344 C 397.84375 60.820312 397.460938 60.902344 395.59375 61.628906 L 393.566406 62.4375 L 388.46875 62.027344 C 381.5625 61.480469 370.269531 61.332031 364.296875 61.726562 C 359.417969 62.058594 355.746094 62.621094 352.785156 63.445312 C 350.59375 64.09375 348.675781 65.132812 348.621094 65.730469 C 348.621094 66.007812 347.359375 66.257812 342.207031 67 C 328.941406 68.902344 322.472656 69.300781 316.992188 68.539062 C 313.484375 68.042969 312.167969 67.449219 309.371094 65.167969 C 307.179688 63.347656 305.753906 62.785156 302.792969 62.488281 C 300.875 62.289062 300.875 62.304688 293.914062 63.992188 C 290.078125 64.933594 285.417969 66.09375 283.5 66.570312 C 281.582031 67.050781 279.882812 67.449219 279.609375 67.449219 C 279.390625 67.449219 278.566406 66.503906 277.746094 65.363281 C 276.867188 64.222656 275.824219 63 275.386719 62.652344 C 274.457031 61.960938 271.167969 61.164062 269.25 61.164062 C 265.851562 61.164062 259.328125 62.636719 250.28125 65.480469 L 243.871094 67.480469 L 243.980469 64.785156 L 244.035156 62.089844 L 242.058594 61.546875 C 240.03125 60.96875 238.386719 60.851562 237.457031 61.199219 C 237.183594 61.316406 236.742188 61.894531 236.523438 62.488281 C 236.140625 63.5625 236.140625 63.5625 232.6875 64.457031 C 222.054688 67.167969 207.964844 69.664062 199.25 70.355469 C 193.878906 70.804688 188.289062 70.539062 186.972656 69.796875 C 185.546875 69 186.863281 64.605469 189.164062 62.242188 L 190.316406 61.101562 L 188.617188 60.636719 C 187.300781 60.273438 186.367188 60.175781 184.503906 60.175781 C 182.148438 60.175781 182.09375 60.191406 180.886719 61.035156 Z M 384.359375 63.496094 C 386.988281 63.613281 389.183594 63.746094 389.183594 63.828125 C 389.183594 64.042969 381.453125 65.976562 377.066406 66.871094 C 368.40625 68.621094 359.636719 69.25 356.621094 68.339844 C 355.417969 67.976562 355.527344 67.019531 356.894531 66.160156 C 358.980469 64.886719 365.226562 63.8125 372.464844 63.496094 C 377.234375 63.296875 378.933594 63.296875 384.359375 63.496094 Z M 384.359375 63.496094 "/>
<path style=" stroke:none;fill-rule:nonzero;fill:rgb(0%,0%,0%);fill-opacity:1;" d="M 214.269531 80.472656 C 213.832031 80.523438 212.953125 80.738281 212.351562 80.988281 L 211.144531 81.417969 L 208.515625 81.003906 C 205.003906 80.492188 200.347656 80.375 197.714844 80.753906 C 191.082031 81.699219 187.683594 84.839844 189.878906 88.0625 C 191.300781 90.210938 193.714844 91.75 202.15625 95.964844 C 208.292969 99.039062 210.488281 100.410156 210.488281 101.253906 C 210.488281 101.617188 210.269531 102 210.046875 102.097656 C 209.390625 102.410156 207.199219 102.675781 206.15625 102.578125 C 203.800781 102.363281 200.457031 100.757812 198.097656 98.707031 C 197.003906 97.78125 195.960938 97.535156 193.054688 97.535156 C 189.933594 97.535156 189.933594 97.566406 191.519531 100.773438 C 193.550781 104.875 193.164062 104.542969 195.742188 104.429688 C 197.058594 104.378906 198.261719 104.195312 198.921875 103.964844 L 199.90625 103.585938 L 203.195312 104.03125 C 205.003906 104.28125 207.472656 104.476562 208.625 104.476562 C 213.390625 104.476562 218.65625 103.289062 221.121094 101.683594 C 222.65625 100.644531 223.039062 97.402344 221.777344 95.863281 C 220.683594 94.558594 216.242188 91.78125 210.707031 88.921875 C 203.304688 85.101562 201.003906 83.234375 202.8125 82.574219 C 204.894531 81.8125 208.074219 82.671875 212.023438 85.070312 C 213.558594 85.996094 215.203125 86.789062 215.695312 86.855469 C 217.066406 87.003906 220.792969 86.972656 221.175781 86.804688 C 221.339844 86.722656 220.847656 85.46875 220.078125 84.027344 C 218.160156 80.359375 218.324219 80.558594 216.570312 80.472656 C 215.75 80.441406 214.707031 80.441406 214.269531 80.472656 Z M 214.269531 80.472656 "/>
<path style=" stroke:none;fill-rule:nonzero;fill:rgb(0%,0%,0%);fill-opacity:1;" d="M 291.613281 80.65625 C 282.238281 81.566406 275.769531 84.691406 273.523438 89.351562 C 272.207031 92.113281 273.25 96.460938 275.714844 98.726562 C 278.457031 101.203125 283.773438 103.289062 289.089844 104.015625 C 291.339844 104.3125 292.875 104.378906 296.820312 104.378906 C 303.015625 104.378906 305.863281 104.015625 310.140625 102.710938 C 317.210938 100.558594 320.664062 97.1875 320.664062 92.507812 C 320.664062 88.210938 317.921875 85.101562 312.222656 82.90625 C 307.78125 81.203125 304.109375 80.605469 297.640625 80.558594 C 295.066406 80.539062 292.378906 80.574219 291.613281 80.65625 Z M 299.121094 82.390625 L 300.65625 82.789062 L 300.820312 91.980469 C 300.929688 98.210938 300.765625 101.386719 300.382812 101.847656 C 299.726562 102.59375 298.027344 102.925781 295.777344 102.757812 C 292.984375 102.542969 292.984375 102.578125 292.820312 92.707031 C 292.652344 82.738281 292.707031 82.507812 295.558594 82.160156 C 297.367188 81.945312 297.421875 81.960938 299.121094 82.390625 Z M 299.121094 82.390625 "/>
<path style=" stroke:none;fill-rule:nonzero;fill:rgb(0%,0%,0%);fill-opacity:1;" d="M 227.042969 81.121094 C 226.765625 81.285156 226.382812 82.441406 226.164062 83.699219 C 225.726562 86.261719 225.945312 86.457031 228.90625 86.457031 C 231.753906 86.457031 232.6875 86.046875 233.398438 84.507812 C 234.222656 82.804688 234.714844 82.492188 236.796875 82.492188 L 238.441406 82.492188 L 238.441406 101.847656 L 236.796875 102.128906 C 234.988281 102.429688 234.441406 102.839844 234.714844 103.585938 L 234.878906 104.066406 L 247.15625 104.113281 C 260.585938 104.164062 260.367188 104.179688 260.367188 103.1875 C 260.367188 102.757812 259.929688 102.511719 258.449219 102.113281 L 256.53125 101.601562 L 256.53125 92.046875 C 256.53125 82.507812 256.53125 82.492188 257.683594 82.492188 C 258.941406 82.492188 260.585938 83.449219 261.191406 84.558594 C 261.957031 85.914062 262.507812 86.242188 264.207031 86.359375 C 265.136719 86.410156 266.507812 86.375 267.273438 86.292969 L 268.753906 86.128906 L 268.316406 84.175781 C 268.097656 83.121094 267.769531 81.945312 267.550781 81.582031 L 267.21875 80.921875 L 247.378906 80.871094 C 228.90625 80.839844 227.480469 80.855469 227.042969 81.121094 Z M 227.042969 81.121094 "/>
<path style=" stroke:none;fill-rule:nonzero;fill:rgb(0%,0%,0%);fill-opacity:1;" d="M 325.597656 81.25 C 324.609375 82.046875 324.941406 82.492188 326.695312 82.789062 C 327.734375 82.972656 328.558594 83.285156 328.941406 83.648438 C 329.269531 84.027344 329.433594 87.269531 329.324219 92.890625 L 329.160156 101.535156 L 327.351562 102 C 325.707031 102.410156 325.542969 102.527344 325.707031 103.253906 L 325.871094 104.066406 L 349.441406 104.066406 L 349.605469 103.304688 C 349.714844 102.691406 349.496094 102.476562 348.34375 102.097656 L 346.976562 101.652344 L 346.976562 93.898438 L 348.894531 93.898438 C 351.6875 93.898438 353.882812 94.292969 354.59375 94.90625 C 354.976562 95.238281 355.195312 96.808594 355.195312 98.957031 C 355.195312 102.59375 355.472656 103.105469 357.5 103.765625 C 358.597656 104.128906 359.089844 104.148438 366.761719 104.148438 L 374.820312 104.148438 L 375.203125 103.535156 C 375.480469 103.054688 375.3125 102.839844 374.273438 102.429688 C 373.121094 101.949219 373.011719 101.71875 372.738281 99.105469 C 372.410156 96.113281 372.191406 95.847656 369.066406 94.609375 C 367.859375 94.144531 364.40625 93.519531 360.953125 93.152344 C 360.074219 93.070312 360.351562 92.988281 362.652344 92.722656 C 366.324219 92.3125 370.214844 91.269531 372.078125 90.195312 C 373.449219 89.417969 373.558594 89.203125 373.558594 87.367188 C 373.558594 85.449219 373.503906 85.335938 371.75 84.277344 C 369.667969 83.003906 366.433594 82.0625 361.828125 81.382812 L 358.761719 80.921875 L 342.425781 80.871094 L 326.144531 80.820312 Z M 352.621094 82.820312 C 354.757812 83.335938 355.195312 84.09375 355.195312 87.121094 C 355.140625 91.320312 354.265625 92.113281 349.496094 92.210938 L 346.976562 92.261719 L 346.976562 82.492188 L 349.113281 82.492188 C 350.375 82.492188 351.742188 82.625 352.621094 82.820312 Z M 352.621094 82.820312 "/>
<path style=" stroke:none;fill-rule:nonzero;fill:rgb(0%,0%,0%);fill-opacity:1;" d="M 378.21875 81.648438 C 378.21875 82.390625 378.382812 82.492188 380.136719 82.804688 L 382.054688 83.136719 L 381.945312 92.527344 L 381.78125 101.914062 L 380.027344 102.246094 C 378.109375 102.609375 377.5625 102.988281 378.054688 103.667969 L 378.382812 104.148438 L 413.738281 104.148438 L 414.617188 102.691406 C 416.863281 98.921875 416.808594 98.988281 415.710938 98.742188 C 414.289062 98.425781 411.820312 98.476562 410.613281 98.839844 C 410.066406 99.007812 408.96875 99.734375 408.148438 100.460938 C 406.121094 102.277344 405.570312 102.496094 402.558594 102.496094 L 400.144531 102.496094 L 400.144531 92.558594 L 402.777344 92.609375 L 405.351562 92.65625 L 406.503906 93.734375 C 407.65625 94.808594 407.65625 94.808594 409.847656 94.855469 C 411.21875 94.890625 412.257812 94.824219 412.699219 94.675781 C 413.136719 94.507812 413.300781 93.601562 413.191406 91.566406 L 413.027344 88.707031 L 410.613281 88.558594 C 407.710938 88.375 407.050781 88.558594 406.503906 89.648438 C 406.011719 90.640625 405.515625 90.789062 402.667969 90.871094 L 400.144531 90.972656 L 400.144531 82.65625 L 402.226562 82.65625 C 404.914062 82.65625 405.679688 82.90625 407.820312 84.476562 C 408.75 85.152344 409.792969 85.765625 410.175781 85.832031 C 411.109375 86.011719 415.382812 85.996094 415.710938 85.8125 C 416.097656 85.648438 413.410156 81.550781 412.699219 81.121094 C 412.203125 80.855469 410.777344 80.839844 395.210938 80.839844 L 378.21875 80.839844 Z M 378.21875 81.648438 "/>
</g>
</svg>
